<svg xmlns="http://www.w3.org/2000/svg" xmlns:xlink="http://www.w3.org/1999/xlink" width="101" height="122" viewBox="0 0 101 122">
    <defs>
        <circle id="a" cx="4.737" cy="115.263" r="4.737"/>
        <circle id="b" cx="78.158" cy="52.895" r="4.737"/>
        <circle id="c" cx="19.737" cy="21.316" r="4.737"/>
        <circle id="d" cx="94.737" cy="4.737" r="4.737"/>
        <circle id="e" cx="19.737" cy="66.316" r="4.737"/>
        <circle id="f" cx="48.947" cy="78.947" r="4.737"/>
    </defs>
    <g fill="none" fill-rule="evenodd">
        <path stroke="#666" stroke-linecap="round" stroke-linejoin="round" d="M4.158 4.158h91.579v113.684H4.158z"/>
        <path stroke="#666" stroke-linecap="round" stroke-linejoin="round" d="M19.947 21.526h60v33.158h-60z"/>
        <g transform="rotate(-90 5.737 115.263)">
            <use fill="#DDD" xlink:href="#a"/>
            <circle cx="4.737" cy="115.263" r="3.987" stroke="#333" stroke-width="1.5"/>
            <use stroke="#333" xlink:href="#a"/>
        </g>
        <g transform="rotate(-90 79.158 52.895)">
            <use fill="#DDD" xlink:href="#b"/>
            <circle cx="78.158" cy="52.895" r="3.987" stroke="#333" stroke-width="1.5"/>
            <use stroke="#333" xlink:href="#b"/>
        </g>
        <g transform="rotate(-90 20.737 21.316)">
            <use fill="#DDD" xlink:href="#c"/>
            <circle cx="19.737" cy="21.316" r="3.987" stroke="#333" stroke-width="1.5"/>
            <use stroke="#333" xlink:href="#c"/>
        </g>
        <g transform="rotate(-90 95.737 4.737)">
            <use fill="#DDD" xlink:href="#d"/>
            <circle cx="94.737" cy="4.737" r="3.987" stroke="#333" stroke-width="1.5"/>
            <use stroke="#333" xlink:href="#d"/>
        </g>
        <path stroke="#666" stroke-linecap="round" stroke-linejoin="round" d="M69.684 67.316H23.105"/>
        <g transform="rotate(-90 20.737 66.316)">
            <use fill="#DDD" xlink:href="#e"/>
            <circle cx="19.737" cy="66.316" r="3.987" stroke="#333" stroke-width="1.5"/>
            <use stroke="#333" xlink:href="#e"/>
        </g>
        <path stroke="#666" stroke-linecap="round" stroke-linejoin="round" d="M49.158 79.947H23.105"/>
        <g transform="rotate(-90 49.947 78.947)">
            <use fill="#DDD" xlink:href="#f"/>
            <circle cx="48.947" cy="78.947" r="3.987" stroke="#333" stroke-width="1.5"/>
            <use stroke="#333" xlink:href="#f"/>
        </g>
    </g>
</svg>
