<svg xmlns="http://www.w3.org/2000/svg" xmlns:xlink="http://www.w3.org/1999/xlink" width="108" height="121" viewBox="0 0 108 121">
    <defs>
        <circle id="a" cx="52.494" cy="4.337" r="4.337"/>
        <circle id="b" cx="52.494" cy="114.217" r="4.337"/>
        <circle id="c" cx="82.855" cy="70.843" r="4.337"/>
        <circle id="d" cx="100.205" cy="23.133" r="4.337"/>
        <circle id="e" cx="10.566" cy="86.747" r="4.337"/>
        <circle id="f" cx="20.687" cy="34.699" r="4.337"/>
    </defs>
    <g fill="none" fill-rule="evenodd">
        <g stroke="#666" stroke-linecap="round" stroke-linejoin="round">
            <path d="M67.846 89.422c.014 10.536 4.213 16.672 12.598 18.406 12.577 2.6 20.29-12.258 13.695-20.575"/>
            <path d="M95.562 89.388c7.69-3.412 11.498-8.316 11.425-14.715-.073-6.398-1.915-10.459-5.524-12.181M53.494 8.334c2.048-3.925 5.334-5.888 9.859-5.888 6.787 0 13.59 2.38 18.253 6.979 2.538 2.501 4.04 4.96 4.506 7.373M73.065 31.15c.607 5.65 2.81 9.723 6.609 12.222 3.799 2.498 8.12 3.633 12.962 3.406"/>
            <path d="M53.642 8.354c-.634-4.072-3.99-6.039-10.067-5.902-9.115.206-18.883 4.726-22.7 14.346M20.876 16.798c-10.626 2.168-16.89 8.458-18.793 18.87-1.902 10.413-.642 18.54 3.779 24.383M23.485 36.369c9.116-.092 14.334-3.571 15.657-10.438M12.826 87.332c-2.745 6.028-3.126 10.853-1.144 14.475 2.973 5.433 8.776 9.242 15.717 8.912M53.494 8.97v105.694c2.75 3.616 6.914 5.251 12.495 4.905 8.371-.518 12.831-7.985 13.6-11.864M79.589 71.597c13.976-.617 22.506-6.09 25.59-16.42 4.626-15.497-.246-29.13-7.563-34.171-3.387-2.334-7.858-3.964-11.445-4.06"/>
            <path d="M35.228 58.84c-6.673-5.967-14.443-7.088-23.31-3.36-13.3 5.59-13.112 24.232-4.893 29.1 1.968 1.166 3.907 2.057 5.816 2.673"/>
            <path d="M23.485 72.901c5.848.913 9.96 3.348 12.336 7.305 2.377 3.957 3.478 8.48 3.303 13.571M53.494 113.329c-2.892 4.144-6.853 6.317-11.883 6.52-7.546.304-12.903-2.428-14.212-9.11"/>
        </g>
        <g transform="rotate(-90 53.494 4.337)">
            <use fill="#0091BA" xlink:href="#a"/>
            <circle cx="52.494" cy="4.337" r="3.587" stroke="#151515" stroke-width="1.5"/>
            <use stroke="#151515" xlink:href="#a"/>
        </g>
        <g transform="rotate(-90 53.494 114.217)">
            <use fill="#0091BA" xlink:href="#b"/>
            <circle cx="52.494" cy="114.217" r="3.587" stroke="#151515" stroke-width="1.5"/>
            <use stroke="#151515" xlink:href="#b"/>
        </g>
        <g transform="rotate(-90 83.855 70.843)">
            <use fill="#0091BA" xlink:href="#c"/>
            <circle cx="82.855" cy="70.843" r="3.587" stroke="#151515" stroke-width="1.5"/>
            <use stroke="#151515" xlink:href="#c"/>
        </g>
        <g transform="rotate(-90 101.205 23.133)">
            <use fill="#0091BA" xlink:href="#d"/>
            <circle cx="100.205" cy="23.133" r="3.587" stroke="#151515" stroke-width="1.5"/>
            <use stroke="#151515" xlink:href="#d"/>
        </g>
        <g transform="rotate(-90 11.566 86.747)">
            <use fill="#0091BA" xlink:href="#e"/>
            <circle cx="10.566" cy="86.747" r="3.587" stroke="#151515" stroke-width="1.5"/>
            <use stroke="#151515" xlink:href="#e"/>
        </g>
        <g transform="rotate(-90 21.687 34.699)">
            <use fill="#0091BA" xlink:href="#f"/>
            <circle cx="20.687" cy="34.699" r="3.587" stroke="#151515" stroke-width="1.5"/>
            <use stroke="#151515" xlink:href="#f"/>
        </g>
    </g>
</svg>
