<?xml version="1.0" encoding="UTF-8"?>
<svg width="120px" height="30px" viewBox="0 0 120 30" version="1.1" xmlns="http://www.w3.org/2000/svg" xmlns:xlink="http://www.w3.org/1999/xlink">
    <!-- Generator: sketchtool 48.2 (47327) - http://www.bohemiancoding.com/sketch -->
    <title>F75C02E3-C177-46CF-B88F-04A4E99FAF02</title>
    <desc>Created with sketchtool.</desc>
    <defs></defs>
    <g id="FutureTech.L.01.Home" stroke="none" stroke-width="1" fill="none" fill-rule="evenodd" transform="translate(-688.000000, -5552.000000)">
        <g id="siteBy" transform="translate(632.000000, 5552.000000)">
            <g id="craftapplied-logo" transform="translate(56.000000, 0.000000)">
                <polygon id="Fill-1" fill="#999999" points="0 30 120 30 120 0 0 0"></polygon>
                <g id="logotype" transform="translate(13.125000, 6.750000)" fill="#FFFFFF">
                    <path d="M6.9082125,4.509525 L6.6607125,6.821775 L5.2075875,6.821775 L5.2570875,5.63265 C5.0752125,5.566275 4.8937125,5.533275 4.6462125,5.533275 C3.1432125,5.533275 2.2184625,6.854775 2.2184625,8.96865 C2.2184625,10.70265 2.9122125,11.643525 4.3653375,11.643525 C5.0752125,11.643525 5.8184625,11.346525 6.3967125,11.033025 L6.2478375,12.568275 C5.6530875,12.88215 4.8108375,13.09665 4.0349625,13.09665 C1.5907125,13.09665 0.3689625,11.726025 0.3689625,9.266025 C0.3689625,6.029025 2.0534625,4.179525 4.8442125,4.179525 C5.6530875,4.179525 6.1653375,4.295025 6.9082125,4.509525" id="Fill-2"></path>
                    <path d="M13.993275,4.2454875 L13.7454,5.9134875 C13.613025,5.8636125 13.431525,5.8309875 13.250025,5.8309875 C11.549025,5.8309875 10.4259,8.1754875 10.0134,12.9316125 L8.2629,12.9316125 C8.3289,12.3537375 8.4279,11.7098625 8.4774,10.9996125 L8.89065,5.6986125 L7.63515,5.6986125 L7.751025,4.3448625 L10.574775,4.3448625 C10.492275,5.0547375 10.4424,5.6656125 10.3929,6.1444875 L10.2114,7.6639875 L10.2444,7.6639875 C10.838775,5.2032375 11.8134,4.1794875 13.217025,4.1794875 C13.5309,4.1794875 13.9104,4.2289875 13.993275,4.2454875" id="Fill-4"></path>
                    <path d="M16.7512125,11.478525 C18.3528375,11.478525 19.7898375,6.937275 19.7898375,5.71515 C19.5089625,5.63265 19.1125875,5.533275 18.6997125,5.533275 C16.8997125,5.533275 15.8759625,7.61415 15.8759625,9.8769 C15.8759625,10.817775 16.1399625,11.478525 16.7512125,11.478525 M20.9950875,4.5594 L21.6888375,4.5594 C21.5403375,5.236275 21.4578375,5.946525 21.4079625,6.6234 L20.9785875,11.5779 L22.1512125,11.5779 L22.0357125,12.93165 L19.3274625,12.93165 C19.3934625,11.9574 19.5584625,10.801275 19.8723375,9.13365 L19.8224625,9.13365 C19.0465875,11.8419 17.9568375,13.031025 16.3878375,13.031025 C14.9347125,13.031025 14.1254625,12.0564 14.1254625,9.8769 C14.1254625,6.986775 15.5950875,4.179525 18.8485875,4.179525 C19.6578375,4.179525 20.3347125,4.3614 20.9950875,4.5594" id="Fill-6"></path>
                    <path d="M30.2256,0.3976875 L30.1101,1.6861875 C29.7801,1.6033125 29.416725,1.5208125 28.970475,1.5208125 C27.12135,1.5208125 26.823975,2.4125625 26.6256,4.3445625 L28.623975,4.3445625 L28.5081,5.6986875 L26.5266,5.6986875 L26.014725,12.1719375 C25.73385,15.5904375 24.9411,17.1920625 22.28235,17.1920625 C21.737475,17.1920625 21.3906,17.0769375 20.878725,16.9610625 L21.0111,15.5409375 C21.3906,15.6238125 21.852975,15.7389375 22.18335,15.7389375 C24.04935,15.7389375 24.198225,13.3940625 24.346725,11.3626875 L24.7761,5.6986875 L23.570475,5.6986875 L23.68635,4.3445625 L24.8751,4.3445625 C25.007475,1.4379375 26.179725,0.1666875 28.557975,0.1666875 C28.920975,0.1666875 29.845725,0.2491875 30.2256,0.3976875" id="Fill-8"></path>
                    <path d="M32.3891625,4.3447125 L34.7670375,4.3447125 L34.6515375,5.6984625 L32.2732875,5.6984625 C32.1082875,7.6803375 31.8607875,10.0417125 31.8607875,10.6195875 C31.8607875,11.1978375 32.0092875,11.5777125 32.6531625,11.5777125 C33.1980375,11.5777125 33.8422875,11.3962125 34.3046625,11.1318375 L34.1726625,12.6014625 C33.6442875,12.8493375 33.0004125,13.0308375 32.2567875,13.0308375 C30.8036625,13.0308375 30.1102875,12.4195875 30.1102875,10.8839625 C30.1102875,10.6859625 30.4736625,6.3592125 30.5227875,5.6984625 L29.2845375,5.6984625 L29.4000375,4.3447125 L30.6386625,4.3447125 L30.8201625,2.3628375 L32.5706625,2.2473375 L32.3891625,4.3447125 Z" id="Fill-10"></path>
                    <path d="M39.662475,11.6766375 C40.9341,11.6766375 41.874975,10.8178875 41.874975,9.4146375 L41.874975,9.1502625 L41.4291,9.1502625 C39.3981,9.1502625 38.29185,9.5132625 38.29185,10.5208875 C38.29185,11.1647625 38.787225,11.6766375 39.662475,11.6766375 M43.55985,7.4657625 C43.55985,9.9096375 43.493475,10.7353875 43.493475,11.5776375 L44.6496,11.5776375 L44.6496,12.9317625 L41.924475,12.9317625 C41.924475,12.3868875 41.95785,11.7760125 42.07335,11.1482625 L42.04035,11.1482625 C41.5611,12.4858875 40.620225,13.1301375 39.1836,13.1301375 C37.4001,13.1301375 36.441975,12.0733875 36.441975,10.6690125 C36.441975,9.2327625 37.317225,8.1921375 40.107975,8.0436375 L41.907975,7.9446375 L41.907975,7.3502625 C41.907975,5.6987625 40.9176,5.5003875 40.02585,5.5003875 C39.4146,5.5003875 38.787225,5.6657625 38.45685,5.7977625 L38.45685,7.0528875 L36.80535,7.0528875 L36.80535,4.9225125 C37.8621,4.3941375 38.968725,4.1462625 40.20735,4.1462625 C42.337725,4.1462625 43.55985,4.9720125 43.55985,7.4657625" id="Fill-12"></path>
                    <path d="M47.978775,11.3133375 C48.37515,11.5612125 48.9534,11.6767125 49.6134,11.6767125 C51.248775,11.6767125 52.28865,10.2895875 52.28865,8.5060875 C52.28865,6.7720875 51.496275,5.6984625 50.19165,5.6984625 C48.72165,5.6984625 47.978775,6.9205875 47.978775,8.8364625 L47.978775,11.3133375 Z M54.237525,8.2255875 C54.237525,11.1809625 52.437525,13.1302125 49.6134,13.1302125 C49.002525,13.1302125 48.44115,13.0473375 47.912775,12.8493375 L47.8794,15.7225875 L49.2504,15.7225875 L49.2504,17.0767125 L45.138525,17.0767125 L45.138525,15.7225875 L46.0959,15.7225875 L46.162275,5.6984625 L44.95665,5.6984625 L44.95665,4.3447125 L47.912775,4.3447125 C47.912775,4.9225875 47.8629,5.5004625 47.747775,6.0952125 L47.780775,6.0952125 C48.226275,4.9225875 49.1679,4.1463375 50.637525,4.1463375 C52.784025,4.1463375 54.237525,5.7648375 54.237525,8.2255875 Z" id="Fill-14"></path>
                    <path d="M58.0828875,11.3133375 C58.4792625,11.5612125 59.0575125,11.6767125 59.7175125,11.6767125 C61.3528875,11.6767125 62.3931375,10.2895875 62.3931375,8.5060875 C62.3931375,6.7720875 61.6003875,5.6984625 60.2957625,5.6984625 C58.8261375,5.6984625 58.0828875,6.9205875 58.0828875,8.8364625 L58.0828875,11.3133375 Z M64.3416375,8.2255875 C64.3416375,11.1809625 62.5420125,13.1302125 59.7175125,13.1302125 C59.1066375,13.1302125 58.5452625,13.0473375 58.0168875,12.8493375 L57.9838875,15.7225875 L59.3545125,15.7225875 L59.3545125,17.0767125 L55.2426375,17.0767125 L55.2426375,15.7225875 L56.2003875,15.7225875 L56.2663875,5.6984625 L55.0607625,5.6984625 L55.0607625,4.3447125 L58.0168875,4.3447125 C58.0168875,4.9225875 57.9670125,5.5004625 57.8518875,6.0952125 L57.8848875,6.0952125 C58.3303875,4.9225875 59.2720125,4.1463375 60.7416375,4.1463375 C62.8881375,4.1463375 64.3416375,5.7648375 64.3416375,8.2255875 Z" id="Fill-16"></path>
                    <polygon id="Fill-18" points="67.66845 0.2325375 67.602075 11.5777875 68.7582 11.5777875 68.7582 12.9315375 64.712325 12.9315375 64.712325 11.5777875 65.75295 11.5777875 65.818575 1.5866625 64.316325 1.5866625 64.316325 0.2325375"></polygon>
                    <path d="M73.18395,1.3059 C73.18395,2.016525 72.622575,2.5779 71.912325,2.5779 C71.20245,2.5779 70.641075,2.016525 70.641075,1.3059 C70.641075,0.59565 71.20245,0.034275 71.912325,0.034275 C72.622575,0.034275 73.18395,0.59565 73.18395,1.3059 Z M72.837075,4.3449 L72.804075,11.5779 L73.9602,11.5779 L73.9602,12.93165 L69.831825,12.93165 L69.831825,11.5779 L70.95495,11.5779 L70.98795,5.69865 L69.68295,5.69865 L69.68295,4.3449 L72.837075,4.3449 Z" id="Fill-20"></path>
                    <path d="M81.127425,7.6801875 L81.127425,7.5976875 C81.127425,6.4254375 80.38455,5.5006875 79.07955,5.5006875 C77.824425,5.5006875 77.015175,6.3099375 76.932675,7.6801875 L81.127425,7.6801875 Z M83.075925,8.7703125 L83.075925,8.9356875 L76.932675,8.9356875 C76.932675,10.5208125 78.088425,11.6765625 79.8888,11.6765625 C80.945925,11.6765625 81.8538,11.3960625 82.63005,11.0161875 L82.53105,12.5353125 C81.7548,12.8491875 80.74755,13.1300625 79.5093,13.1300625 C76.734675,13.1300625 74.984175,11.3960625 74.984175,8.6713125 C74.984175,5.9300625 76.602675,4.1461875 79.195425,4.1461875 C81.5568,4.1461875 83.075925,5.7320625 83.075925,8.7703125 Z" id="Fill-22"></path>
                    <path d="M88.1956875,11.57775 C89.7151875,11.57775 90.4085625,10.28925 90.4085625,8.440125 L90.4085625,5.962875 C90.0121875,5.731875 89.4841875,5.599875 88.7735625,5.599875 C87.1884375,5.599875 86.1148125,6.937125 86.1148125,8.7705 C86.1148125,10.4715 86.8749375,11.57775 88.1956875,11.57775 Z M92.2914375,0.2325 L92.2250625,11.57775 L93.3811875,11.57775 L93.3811875,12.9315 L90.4745625,12.9315 C90.4745625,12.370125 90.5240625,11.85825 90.6399375,11.181 L90.6069375,11.181 C90.1606875,12.353625 89.2033125,13.13025 87.7501875,13.13025 C85.6363125,13.13025 84.1663125,11.544375 84.1663125,9.051 C84.1663125,6.09525 85.9663125,4.146375 88.7735625,4.146375 C89.3683125,4.146375 89.9461875,4.228875 90.4745625,4.34475 L90.5075625,1.586625 L88.9389375,1.586625 L88.9389375,0.2325 L92.2914375,0.2325 Z" id="Fill-24"></path>
                </g>
            </g>
        </g>
    </g>
</svg>