<svg xmlns="http://www.w3.org/2000/svg" xmlns:xlink="http://www.w3.org/1999/xlink" width="122" height="85" viewBox="0 0 122 85">
    <defs>
        <circle id="a" cx="4.235" cy="79.059" r="4.235"/>
        <circle id="b" cx="115.765" cy="4.235" r="4.235"/>
        <circle id="c" cx="67.765" cy="22.588" r="4.235"/>
        <circle id="d" cx="96" cy="33.882" r="4.235"/>
        <circle id="e" cx="67.765" cy="45.176" r="4.235"/>
        <circle id="f" cx="24" cy="22.588" r="4.235"/>
        <circle id="g" cx="46.588" cy="45.176" r="4.235"/>
    </defs>
    <g fill="none" fill-rule="evenodd" transform="translate(1 1)">
        <path stroke="#666" stroke-linecap="round" stroke-linejoin="round" d="M4.235 4.235h111.529v74.824H4.235z"/>
        <g transform="rotate(-90 4.235 79.059)">
            <use fill="#DDD" xlink:href="#a"/>
            <circle cx="4.235" cy="79.059" r="3.485" stroke="#333" stroke-width="1.5"/>
            <use stroke="#333" xlink:href="#a"/>
        </g>
        <g transform="rotate(-90 115.765 4.235)">
            <use fill="#DDD" xlink:href="#b"/>
            <circle cx="115.765" cy="4.235" r="3.485" stroke="#333" stroke-width="1.5"/>
            <use stroke="#333" xlink:href="#b"/>
        </g>
        <path stroke="#666" stroke-linecap="round" stroke-linejoin="round" d="M69.882 22.588h25.412"/>
        <g transform="rotate(-90 67.765 22.588)">
            <use fill="#DDD" xlink:href="#c"/>
            <circle cx="67.765" cy="22.588" r="3.485" stroke="#333" stroke-width="1.5"/>
            <use stroke="#333" xlink:href="#c"/>
        </g>
        <path stroke="#666" stroke-linecap="round" stroke-linejoin="round" d="M69.882 33.882h25.412M69.882 45.176h25.412"/>
        <g transform="rotate(-90 96 33.882)">
            <use fill="#DDD" xlink:href="#d"/>
            <circle cx="96" cy="33.882" r="3.485" stroke="#333" stroke-width="1.5"/>
            <use stroke="#333" xlink:href="#d"/>
        </g>
        <g transform="rotate(-90 67.765 45.176)">
            <use fill="#DDD" xlink:href="#e"/>
            <circle cx="67.765" cy="45.176" r="3.485" stroke="#333" stroke-width="1.5"/>
            <use stroke="#333" xlink:href="#e"/>
        </g>
        <circle cx="34.588" cy="34.588" r="16.235" stroke="#666" stroke-linecap="round" stroke-linejoin="round"/>
        <path stroke="#666" stroke-linecap="round" stroke-linejoin="round" d="M45.19 43.778L26.824 25.412"/>
        <g transform="rotate(-90 24 22.588)">
            <use fill="#DDD" xlink:href="#f"/>
            <circle cx="24" cy="22.588" r="3.485" stroke="#333" stroke-width="1.5"/>
            <use stroke="#333" xlink:href="#f"/>
        </g>
        <g transform="rotate(-90 46.588 45.176)">
            <use fill="#DDD" xlink:href="#g"/>
            <circle cx="46.588" cy="45.176" r="3.485" stroke="#333" stroke-width="1.5"/>
            <use stroke="#333" xlink:href="#g"/>
        </g>
    </g>
</svg>
