<svg xmlns="http://www.w3.org/2000/svg" xmlns:xlink="http://www.w3.org/1999/xlink" width="122" height="117" viewBox="0 0 122 117">
    <defs>
        <circle id="a" cx="3.462" cy="3.462" r="3.462"/>
        <circle id="b" cx="23.077" cy="15" r="3.462"/>
        <circle id="c" cx="99.231" cy="15" r="3.462"/>
        <circle id="d" cx="103.846" cy="95.769" r="3.462"/>
        <circle id="e" cx="3.462" cy="58.846" r="3.462"/>
    </defs>
    <g fill="none" fill-rule="evenodd">
        <path stroke="#666" stroke-linecap="round" stroke-linejoin="round" d="M27.062 59.34c-1.106 2.817-.65 3.38 1.539 6.978 2.188 3.598 3.86 9.967 3.54 16.386-.32 6.419 3.273-.426 8.296-8.968 5.023-8.541-.134-10.633-3.28-13.752-3.146-3.12-10.033-2.222-12.932-5.624-2.9-3.402-1.187-6.378 4.376-9.055 5.563-2.676 14.084-11.65 8.556-11.831-5.529-.182-7.248-1.279-10.57-4.308-3.324-3.028-21.69-1.524-16.636 1.99 5.054 3.515 6.335 3.507 5.054 12.375-1.28 8.867 13.163 12.993 12.057 15.81zM66.04 71.501c1.407 6.785 4.157 9.568 7.778 3.316 3.985-6.88 1.818-12.361 4.725-14.208 2.908-1.848.237-12.428 5.902-9.54 5.665 2.887 5.93 8.808 11.245 4.244 5.315-4.564 2.754 4.654 6.397 2.86 3.643-1.794 9.209-8.893 6.793-12.012-2.417-3.118 4.39-9.18 4.03-11.93-.362-2.751-11.393-5.965-27.371-4.313-13.15 1.359-13.972-.97-15.897-1.207m-8.213 6.316c-.76.877-1.417 1.533-1.948 1.68-.764.21-2.225 1.817-3.061 3.439m.337 7.164c-2.87 2.87-7.117 7.486.328 12.46M117.014 69.73c-1.233-1.13-4.507-.641-7.234.316-2.726.958-5.888 6.827-1.878 7.141 4.01.314 3.254.543 6.645 1.97 3.392 1.426 6.766-2.469 6.43-5.1-.337-2.632-2.73-3.196-3.963-4.327z"/>
        <g transform="translate(61 40.23)">
            <g transform="rotate(-90 3.462 3.462)">
                <use fill="#0091BA" xlink:href="#a"/>
                <circle cx="3.462" cy="3.462" r="2.712" stroke="#333" stroke-width="1.5"/>
                <use stroke="#333" xlink:href="#a"/>
            </g>
            <circle cx="3.462" cy="3.462" r="3.462" stroke="#666" stroke-linecap="round" stroke-linejoin="round"/>
        </g>
        <path stroke="#666" stroke-linecap="round" stroke-linejoin="round" d="M100.938 15.981C90.693 6.673 77.086 1 62.154 1 47.095 1 33.384 6.77 23.11 16.218M4.462 58.692c0 31.863 25.83 57.693 57.692 57.693 16.965 0 32.22-7.323 42.776-18.98"/>
        <g stroke="#666" stroke-linecap="round" stroke-linejoin="round">
            <path d="M68.246 19.358h-7.57l3.786 16.084zM68.246 68.027h-7.57l3.786-16.085zM40.127 39.908v7.569l16.085-3.785zM88.796 39.908v7.569l-16.084-3.785z"/>
        </g>
        <g transform="rotate(-90 24.077 15)">
            <use fill="#0091BA" xlink:href="#b"/>
            <circle cx="23.077" cy="15" r="2.712" stroke="#333" stroke-width="1.5"/>
            <use stroke="#333" xlink:href="#b"/>
        </g>
        <g transform="rotate(-90 100.23 15)">
            <use fill="#0091BA" xlink:href="#c"/>
            <circle cx="99.231" cy="15" r="2.712" stroke="#333" stroke-width="1.5"/>
            <use stroke="#333" xlink:href="#c"/>
        </g>
        <g transform="rotate(-90 104.846 95.77)">
            <use fill="#0091BA" xlink:href="#d"/>
            <circle cx="103.846" cy="95.769" r="2.712" stroke="#333" stroke-width="1.5"/>
            <use stroke="#333" xlink:href="#d"/>
        </g>
        <g transform="rotate(-90 4.462 58.846)">
            <use fill="#0091BA" xlink:href="#e"/>
            <circle cx="3.462" cy="58.846" r="2.712" stroke="#333" stroke-width="1.5"/>
            <use stroke="#333" xlink:href="#e"/>
        </g>
    </g>
</svg>
