<svg xmlns="http://www.w3.org/2000/svg" xmlns:xlink="http://www.w3.org/1999/xlink" width="100" height="100" viewBox="0 0 100 100">
    <defs>
        <circle id="a" cx="54.024" cy="46.325" r="3.243"/>
        <circle id="b" cx="78.868" cy="52.059" r="3.243"/>
        <circle id="c" cx="33.767" cy="89.516" r="3.243"/>
        <circle id="d" cx="101.419" cy="80.725" r="3.243"/>
    </defs>
    <g fill="none" fill-rule="evenodd">
        <path stroke="#666" stroke-linecap="round" stroke-linejoin="round" d="M34.502 17.583c-7.05-.182-13.502.148-19.354.99C6.369 19.839 3.385 24.009 2.32 37.077 1.257 50.143-1.006 61.603 8.304 71.008c10.13 10.234 14.28 14.28 22.003 22.003 7.723 7.723 25.097 7.008 31.648.457l33.85-33.85c5.25-5.25 1.493-10.897 0-12.39-1.494-1.494-6.456-5.377-11.832 0l-9.807 9.807c-4.692 4.692-1.237 10.282.027 11.546 1.264 1.264 6.678 5.906 12.44.143"/>
        <path stroke="#666" stroke-linecap="round" stroke-linejoin="round" d="M85.287 46.154c3.852-3.852 6.516-10.198 1.785-14.929-4.731-4.73-10.165-4.204-14.37 0l-10.36 10.36c-3.296 3.296-3.237 9.942.308 13.487 3.546 3.545 9.023 4.63 13.962-.309"/>
        <path stroke="#666" stroke-linecap="round" stroke-linejoin="round" d="M69.82 34.107l7.77-7.769c3.223-3.224 4.024-8.194.221-11.997-3.802-3.802-8.592-4.095-12.926.24l-10.66 10.66M23.646 37.472l13.233-1.36 9.898 9.9c4.484 4.483 10.877 2.24 13.118 0M34.349 17.597l11.585.146 14.714 14.713c2.537 2.537 3.063 5.232 2.78 7.466M64.477 14.657c2.68-4.554.124-8.783-1.826-10.732-2.277-2.278-8.213-5.653-13.866 0L35.577 17.133M30.724 73.599c5.674-5.674 14.788-18.483 7.632-35.547"/>
        <g transform="rotate(-45 33.453 61.846)">
            <use fill="#DDD" xlink:href="#a"/>
            <circle cx="54.024" cy="46.325" r="2.493" stroke="#333" stroke-width="1.5"/>
            <use stroke="#333" xlink:href="#a"/>
        </g>
        <g transform="rotate(-45 58.297 67.58)">
            <use fill="#DDD" xlink:href="#b"/>
            <circle cx="78.868" cy="52.059" r="2.493" stroke="#333" stroke-width="1.5"/>
            <use stroke="#333" xlink:href="#b"/>
        </g>
        <g transform="rotate(-45 13.195 105.037)">
            <use fill="#DDD" xlink:href="#c"/>
            <circle cx="33.767" cy="89.516" r="2.493" stroke="#333" stroke-width="1.5"/>
            <use stroke="#333" xlink:href="#c"/>
        </g>
        <g transform="rotate(-45 80.848 96.246)">
            <use fill="#DDD" xlink:href="#d"/>
            <circle cx="101.419" cy="80.725" r="2.493" stroke="#333" stroke-width="1.5"/>
            <use stroke="#333" xlink:href="#d"/>
        </g>
    </g>
</svg>
