<svg xmlns="http://www.w3.org/2000/svg" xmlns:xlink="http://www.w3.org/1999/xlink" width="122" height="98" viewBox="0 0 122 98">
    <defs>
        <circle id="a" cx="9.565" cy="90.435" r="5.217"/>
        <circle id="b" cx="112.174" cy="90.435" r="5.217"/>
        <circle id="c" cx="60.87" cy="55.652" r="5.217"/>
        <circle id="d" cx="114.783" cy="31.304" r="5.217"/>
        <circle id="e" cx="5.217" cy="31.304" r="5.217"/>
        <circle id="f" cx="17.391" cy="5.217" r="5.217"/>
        <circle id="g" cx="102.609" cy="5.217" r="5.217"/>
    </defs>
    <g fill="none" fill-rule="evenodd">
        <path stroke="#666" stroke-linecap="round" stroke-linejoin="round" d="M61.87 90.578V60.13M114.913 32.304H84.478M111.435 91.435H13.174M38.289 32.304H5.348M19.26 7.087l43.487 54.52M104.478 7.087l-43.486 54.52"/>
        <g transform="rotate(-90 10.565 90.435)">
            <use fill="#0091BA" xlink:href="#a"/>
            <circle cx="9.565" cy="90.435" r="4.467" stroke="#151515" stroke-width="1.5"/>
            <use stroke="#151515" xlink:href="#a"/>
        </g>
        <g transform="rotate(-90 113.174 90.435)">
            <use fill="#0091BA" xlink:href="#b"/>
            <circle cx="112.174" cy="90.435" r="4.467" stroke="#151515" stroke-width="1.5"/>
            <use stroke="#151515" xlink:href="#b"/>
        </g>
        <g transform="rotate(-90 61.87 55.652)">
            <use fill="#0091BA" xlink:href="#c"/>
            <circle cx="60.87" cy="55.652" r="4.467" stroke="#151515" stroke-width="1.5"/>
            <use stroke="#151515" xlink:href="#c"/>
        </g>
        <g transform="rotate(-90 115.783 31.304)">
            <use fill="#0091BA" xlink:href="#d"/>
            <circle cx="114.783" cy="31.304" r="4.467" stroke="#151515" stroke-width="1.5"/>
            <use stroke="#151515" xlink:href="#d"/>
        </g>
        <g transform="rotate(-90 6.217 31.304)">
            <use fill="#0091BA" xlink:href="#e"/>
            <circle cx="5.217" cy="31.304" r="4.467" stroke="#151515" stroke-width="1.5"/>
            <use stroke="#151515" xlink:href="#e"/>
        </g>
        <g transform="rotate(-90 18.391 5.217)">
            <use fill="#0091BA" xlink:href="#f"/>
            <circle cx="17.391" cy="5.217" r="4.467" stroke="#151515" stroke-width="1.5"/>
            <use stroke="#151515" xlink:href="#f"/>
        </g>
        <g transform="rotate(-90 103.609 5.217)">
            <use fill="#0091BA" xlink:href="#g"/>
            <circle cx="102.609" cy="5.217" r="4.467" stroke="#151515" stroke-width="1.5"/>
            <use stroke="#151515" xlink:href="#g"/>
        </g>
    </g>
</svg>
