<svg xmlns="http://www.w3.org/2000/svg" xmlns:xlink="http://www.w3.org/1999/xlink" width="122" height="114" viewBox="0 0 122 114">
    <defs>
        <circle id="a" cx="11.163" cy="80.93" r="4.186"/>
        <circle id="b" cx="60" cy="104.651" r="4.186"/>
        <circle id="c" cx="11.163" cy="4.186" r="4.186"/>
        <circle id="d" cx="110.233" cy="80.93" r="4.186"/>
        <circle id="e" cx="110.233" cy="4.186" r="4.186"/>
        <circle id="f" cx="30.698" cy="51.628" r="4.186"/>
        <circle id="g" cx="93.488" cy="29.302" r="4.186"/>
    </defs>
    <g fill="none" fill-rule="evenodd">
        <g stroke="#666" stroke-linecap="round" stroke-linejoin="round">
            <path d="M1 81.93h120M1 5.186h120M12.163 81.93h99.07V5.186h-99.07zM61 81.93v16.744M67.977 105.651A6.976 6.976 0 0 1 61 112.628a6.976 6.976 0 1 1 6.977-6.977z"/>
        </g>
        <g transform="rotate(-90 12.163 80.93)">
            <use fill="#0091BA" xlink:href="#a"/>
            <circle cx="11.163" cy="80.93" r="3.436" stroke="#333" stroke-width="1.5"/>
            <use stroke="#333" xlink:href="#a"/>
        </g>
        <g transform="rotate(-90 61 104.651)">
            <use fill="#0091BA" xlink:href="#b"/>
            <circle cx="60" cy="104.651" r="3.436" stroke="#333" stroke-width="1.5"/>
            <use stroke="#333" xlink:href="#b"/>
        </g>
        <g transform="rotate(-90 12.163 4.186)">
            <use fill="#0091BA" xlink:href="#c"/>
            <circle cx="11.163" cy="4.186" r="3.436" stroke="#333" stroke-width="1.5"/>
            <use stroke="#333" xlink:href="#c"/>
        </g>
        <g transform="rotate(-90 111.233 80.93)">
            <use fill="#0091BA" xlink:href="#d"/>
            <circle cx="110.233" cy="80.93" r="3.436" stroke="#333" stroke-width="1.5"/>
            <use stroke="#333" xlink:href="#d"/>
        </g>
        <g transform="rotate(-90 111.233 4.186)">
            <use fill="#0091BA" xlink:href="#e"/>
            <circle cx="110.233" cy="4.186" r="3.436" stroke="#333" stroke-width="1.5"/>
            <use stroke="#333" xlink:href="#e"/>
        </g>
        <path stroke="#666" stroke-linecap="round" stroke-linejoin="round" d="M32.395 51.476l12.472-12.838 12.836 10.605 13.359-7.238 12.504 13.26 10.225-23.567"/>
        <g transform="rotate(-90 31.698 51.628)">
            <use fill="#0091BA" xlink:href="#f"/>
            <circle cx="30.698" cy="51.628" r="3.436" stroke="#333" stroke-width="1.5"/>
            <use stroke="#333" xlink:href="#f"/>
        </g>
        <g transform="rotate(-90 94.488 29.302)">
            <use fill="#0091BA" xlink:href="#g"/>
            <circle cx="93.488" cy="29.302" r="3.436" stroke="#333" stroke-width="1.5"/>
            <use stroke="#333" xlink:href="#g"/>
        </g>
    </g>
</svg>
