<svg id="Future_Tech_Ltd_Logo" xmlns="http://www.w3.org/2000/svg" viewBox="0 0 2304 480"><style>.st0{fill:#fff}</style><path id="Innovation_through_Technology" class="st0" d="M603.7 408.4H614v-94.5h-10.3v94.5zm82.5-41.2c0-22.9-14.4-28-22.8-28-10.5 0-18.3 6-21.7 12.5h-.2l-.6-11h-9.2c.2 5.5.5 10.5.5 17.5v50.2h10.3V367c0-11.8 8.9-19.2 17.7-19.2 11.8 0 15.7 9.7 15.7 20.7v39.9h10.3v-41.2zm71.7 0c0-22.9-14.4-28-22.8-28-10.5 0-18.3 6-21.7 12.5h-.2l-.6-11h-9.2c.2 5.5.5 10.5.5 17.5v50.2h10.3V367c0-11.8 8.9-19.2 17.7-19.2 11.8 0 15.7 9.7 15.7 20.7v39.9h10.3v-41.2zm45-28c-17.2 0-31.6 12.8-31.6 35.8 0 21.8 13.4 34.8 30.7 34.8 15 0 31.6-10.7 31.6-35.8 0-20.7-12.2-34.8-30.7-34.8zm20.2 35.2c0 15.3-8.6 27.4-20.8 27.4-12.2 0-20.5-12.2-20.5-27.2 0-13 6.1-27.4 20.7-27.4 14.8 0 20.6 15.2 20.6 27.2zm64-33.6L873.7 380c-2.1 6.1-4.1 11.8-5.6 17.4h-.4c-1.5-5.6-3.3-11.3-5.5-17.4l-13.5-39.3h-11l24.9 67.7h9.7l25.7-67.6h-10.9zm65.3 25.3c0-13.4-5-26.9-24.1-26.9-7.6 0-15.1 2.1-20.6 5.7l2.5 7.1c4.9-3.2 10.6-4.9 16.5-4.8 15.4 0 15.4 12.9 15.4 18.6-25-.1-39.2 8.7-39.2 24.9 0 9.8 6.8 19.2 19.7 19.2 9.5 0 16.5-4.8 20-10.2h.4l1 8.7h9.4c-.8-5.3-1.1-10.7-1-16.1v-26.2zM942.3 386c0 8.2-7.1 15.9-17.1 15.9-6.2 0-11.7-3.8-11.7-12.5 0-14.3 16-16.1 28.8-16.1V386zm29.6-45.2h-10.4v8.1h10.4v38.8c0 7.2.5 22.1 16.9 22.1 3.4.1 6.8-.4 10-1.6l-.6-7.9c-2.2.7-4.6 1.1-6.9 1-6.6 0-9.2-4.7-9.2-13.3v-39.1h17.5v-8.1h-17.5V325l-10.2 3.5v12.3zm50.8-19c0-3.8-2.6-6.9-6.7-6.9-3.7 0-6.8 3-6.8 6.7v.3c0 4 2.7 7.1 6.7 7.1s6.8-2.9 6.8-7.2zm-1.6 19h-10.3v67.6h10.3v-67.6zm45.2-1.6c-17.2 0-31.6 12.8-31.6 35.8 0 21.8 13.4 34.8 30.7 34.8 15 0 31.6-10.7 31.6-35.8 0-20.7-12.2-34.8-30.7-34.8zm20.2 35.2c0 15.3-8.6 27.4-20.8 27.4-12.1 0-20.5-12.2-20.5-27.2 0-13 6.1-27.4 20.7-27.4 14.8 0 20.6 15.2 20.6 27.2zm78.5-7.2c0-22.9-14.4-28-22.8-28-10.5 0-18.3 6-21.7 12.5h-.2l-.6-11h-9.2c.2 5.5.5 10.5.5 17.5v50.2h10.3V367c0-11.8 8.9-19.2 17.7-19.2 11.8 0 15.8 9.7 15.8 20.7v39.9h10.3v-41.2zm50.4-26.4H1205v8.1h10.4v38.8c0 7.2.5 22.1 16.9 22.1 3.4.1 6.8-.4 10-1.6l-.6-7.9c-2.2.7-4.6 1.1-6.9 1-6.6 0-9.2-4.7-9.2-13.3v-39.1h17.5v-8.1h-17.5V325l-10.2 3.5v12.3zm92.9 26.4c0-22.9-14.3-28-22.6-28-8.6.1-16.5 4.7-20.9 12h-.2v-42h-10.3v99.2h10.3v-41.5c0-12.4 9.9-19 17.8-19 11.7 0 15.6 9.5 15.6 20.6v39.9h10.3v-41.2zm48.5-27.5c-1-.2-2.1-.3-3.1-.4-8.3 0-15.4 6.1-18.3 14.5h-.4l-.5-13h-9.1c.4 6.4.5 13 .5 20.2v47.4h10.3v-36.7c0-11.4 5.7-22.4 16.9-22.4 1.2 0 2.5.1 3.7.2v-9.8zm36.3-.5c-17.2 0-31.6 12.8-31.6 35.8 0 21.8 13.4 34.8 30.8 34.8 15 0 31.6-10.7 31.6-35.8 0-20.7-12.3-34.8-30.8-34.8zm20.3 35.2c0 15.3-8.6 27.4-20.8 27.4-12.2 0-20.5-12.2-20.5-27.2 0-13 6.1-27.4 20.7-27.4 14.7 0 20.6 15.2 20.6 27.2zm77.3-33.6h-10.3v42c.3 9.9-7.5 18.1-17.4 18.3h-.2c-11.3 0-15.1-9.2-15.1-22.3v-38.1h-10.3v39.9c0 23.3 12 29.1 22.2 29.1 8.9.1 17.1-4.5 21.6-12.2h.4l.5 10.7h9.3c-.2-5.2-.6-11-.6-18l-.1-49.4zm64.4-.2l-.5 10.2h-.2c-2.8-5.5-8.9-11.7-20.5-11.7-14.6 0-29.3 12.4-29.3 35.8 0 19 11.5 33.2 27.7 33.2 10.3 0 17.5-5.2 20.9-11.5h.2v8.1c0 17.9-9.1 24.4-21.4 24.4-6.7 0-13.2-1.7-19-5.1l-2.7 8.1c5.1 3.5 13.5 5.3 21.2 5.3 32 0 32.2-27 32.2-38.8v-39.4c0-8.3.2-13.8.6-18.6h-9.2zm-1.7 39.6c0 14-10.4 19.8-18.1 19.8-13.1 0-20.1-11.3-20.1-25.7 0-16.4 8.3-26.9 20.2-26.9 9.4 0 18 7.4 18 19.2v13.6zm82.6-13c0-22.9-14.3-28-22.6-28-8.6.1-16.5 4.7-20.9 12h-.2v-42H1582v99.2h10.3v-41.5c0-12.4 9.9-19 17.8-19 11.7 0 15.6 9.5 15.6 20.6v39.9h10.3v-41.2zm103.2-53.2h-66v8.7h27.8v85.7h10.3v-85.7h27.9V314zm45 84.1c-5.6 2.4-11.6 3.6-17.7 3.5-12.2 0-22.8-7.1-22.9-25.8h46c.1-1.6.2-3.3.2-5.7 0-11.8-5.3-30.9-26.2-30.9-18.2 0-30.1 15.3-30.1 36.5 0 20.2 11.8 34.1 31.5 34.1 10.3 0 17.4-2.4 21.2-4.2l-2-7.5zm-40.5-30c1-9.3 6.4-21.1 18.8-21.1 13.3 0 17.1 11.9 17 21.1h-35.8zm104.6 29.8c-4.6 2.2-9.6 3.3-14.6 3.3-13.6 0-23.4-10.3-23.4-26.7 0-14.5 8.2-27 23.8-27 4.9-.1 9.6 1.1 13.9 3.5l2.6-8.3c-5.1-2.4-10.6-3.6-16.2-3.6-20.8 0-34.6 15.3-34.6 36.1 0 20.7 12.8 34.5 32.1 34.5 6.3.1 12.6-1.2 18.3-3.8l-1.9-8zm67.8-30.7c0-22.9-14.3-28-22.6-28-8.6.1-16.5 4.7-21 12h-.2v-42H1862v99.2h10.3v-41.5c0-12.4 9.9-19 17.8-19 11.7 0 15.6 9.5 15.6 20.6v39.9h10.3v-41.2h.1zm71.7 0c0-22.9-14.4-28-22.8-28-10.5 0-18.3 6-21.7 12.5h-.2l-.6-11h-9.2c.2 5.5.5 10.5.5 17.5v50.2h10.3V367c0-11.8 8.9-19.2 17.7-19.2 11.8 0 15.8 9.7 15.8 20.7v39.9h10.3l-.1-41.2zm45-28c-17.2 0-31.6 12.8-31.6 35.8 0 21.8 13.4 34.8 30.8 34.8 15 0 31.6-10.7 31.6-35.8-.1-20.7-12.3-34.8-30.8-34.8zm20.2 35.2c0 15.3-8.6 27.4-20.8 27.4-12.2 0-20.4-12.2-20.4-27.2 0-13 6.1-27.4 20.7-27.4 14.7 0 20.5 15.2 20.5 27.2zm35.1-65.2h-10.3v99.2h10.3v-99.2zm45.6 30c-17.2 0-31.6 12.8-31.6 35.8 0 21.8 13.4 34.8 30.8 34.8 15 0 31.6-10.7 31.6-35.8 0-20.7-12.3-34.8-30.8-34.8zm20.3 35.2c0 15.3-8.6 27.4-20.8 27.4-12.1 0-20.4-12.2-20.4-27.2 0-13 6.1-27.4 20.7-27.4s20.5 15.2 20.5 27.2zm71-33.7l-.5 10.2h-.2c-2.9-5.5-8.9-11.7-20.5-11.7-14.6 0-29.3 12.4-29.3 35.8 0 19 11.5 33.2 27.6 33.2 10.3 0 17.5-5.2 20.9-11.5h.2v8.1c0 17.9-9.1 24.4-21.4 24.4-6.7 0-13.2-1.7-19-5.1l-2.7 8.1c5.1 3.5 13.5 5.3 21.2 5.3 32 0 32.2-27 32.2-38.8v-39.4c0-8.3.2-13.8.6-18.6h-9.1zm-1.8 39.5c0 14-10.4 19.8-18.1 19.8-13.1 0-20.1-11.3-20.1-25.7 0-16.4 8.3-26.9 20.2-26.9 9.4 0 18 7.4 18 19.2v13.6zm69.9-39.4l-13.6 40.8c-1.6 5.2-3.2 10.3-4.3 14.4h-.4c-1.1-4.1-2.6-9.4-4.3-14.1l-14.8-41h-11.3l23.9 62.5c.4.9.7 1.9.8 2.9 0 1.4-6.1 18.5-21.8 24.3l2.9 8.7c5.1-1.5 9.9-4.2 13.8-7.9 8.4-7.9 14.1-20.6 22.2-42.5l18-47.9-11.1-.2z"/><path id="Future_Tech_Ltd" class="st0" d="M636.1 240.3v-79.6h61v-30h-61V80.3h65.5V49.6H599.4v190.7h36.7zm202.2-138.2h-36.7v85.1c0 15.6-10.7 25.8-22.6 25.8-15.1 0-21.1-13.1-21.1-34v-76.9h-36.7v82.3c0 41.4 17.9 58.5 44.1 58.5 21.3 0 34-12.2 39.7-21.1h.7l1.7 18.4h32c-.5-11.7-1.2-25.8-1.2-42.2l.1-95.9zm36.6 0h-18.1v27h18.1v63.7c0 15.4.7 49.8 40.4 49.8 10.7 0 19.6-1.2 24.5-3.2l-.5-28c-3.9.9-7.9 1.3-11.9 1.2-11.2 0-16.4-6.9-16.4-23.6v-60h30.5v-27H911V66l-36.2 10.7.1 25.4zm202.7 0h-36.7v85.1c0 15.6-10.7 25.8-22.6 25.8-15.1 0-21.1-13.1-21.1-34v-76.9h-36.7v82.3c0 41.4 17.9 58.5 44.1 58.5 21.3 0 34-12.2 39.7-21.1h.7l1.7 18.4h32c-.5-11.7-1.2-25.8-1.2-42.2l.1-95.9zm106.8-2.2c-2.7-.5-5.4-.8-8.2-.7-12.9 0-27.8 9.2-34.2 27h-1l-1.5-24.1H1108c.5 12.4 1 26 1 43.2v95h36.7v-71.4c0-23.6 12.7-34.7 29.3-34.7 3.2 0 6.3.2 9.4.7v-35zm117.5 109.6c-10.8 3.8-22.2 5.7-33.7 5.7-19.8 0-36.7-9.4-37.7-33h82.6c.8-4.8 1.1-9.7 1-14.6 0-44.6-21.8-68.4-55.3-68.4-40.4 0-63.2 34.2-63.2 73.9 0 42.9 24.3 69.7 66.9 69.7 17.1 0 33.2-3 44.6-7.9l-5.2-25.4zm-71.4-52.8c1-13.6 8.4-32 26-32 18.1 0 23.8 17.6 23.6 32h-49.6zm279.9-107.1h-130.7v31.7h46.9v159h36.7v-159h47.1V49.6zm98.1 159.9c-10.8 3.8-22.2 5.7-33.7 5.7-19.8 0-36.7-9.4-37.7-33h82.6c.8-4.8 1.1-9.7 1-14.6 0-44.6-21.8-68.4-55.3-68.4-40.4 0-63.2 34.2-63.2 73.9 0 42.9 24.3 69.7 66.9 69.7 17.1 0 33.2-3 44.6-7.9l-5.2-25.4zm-71.4-52.8c1-13.6 8.4-32 26-32 18.1 0 23.8 17.6 23.6 32h-49.6zm196.7 52.6c-7 3.1-14.6 4.6-22.3 4.5-21.1 0-36.7-15.6-36.7-42.7 0-24.3 13.4-42.9 36.4-42.9 10.2 0 16.9 2.2 21.6 4.5l5.9-28c-5.9-2.5-16.9-5.2-28.8-5.2-45.6 0-72.4 31.7-72.4 73.2 0 43.9 26.3 70.2 66.7 70.2 14.6 0 27.3-3 33.5-6l-3.9-27.6zm143.9-51.6c0-40.7-19.3-58.5-43.9-58.5-14.8.1-28.6 7.4-36.9 19.6h-.5V40.9h-36.7v199.4h36.7v-83.8c0-20.6 14.1-27 23.3-27 15.9 0 21.3 13.6 21.3 31.2v79.6h36.7v-82.6zm193.1 51.6h-68.2V49.6h-36.7v190.7h104.9v-31zm21.6-107.2h-18.1v27h18.1v63.7c0 15.4.7 49.8 40.4 49.8 10.7 0 19.6-1.2 24.6-3.2l-.5-28c-3.9.9-7.9 1.3-11.9 1.2-11.1 0-16.4-6.9-16.4-23.6v-60h30.5v-27h-30.5V66l-36.2 10.7v25.4zm204.3-61.2H2260v74.6h-.5c-5.5-9.4-17.1-16.1-33.2-16.1-29.8 0-55.8 25.8-55.8 72.9 0 41.9 22.3 70.7 53.6 70.7 16.9 0 31.7-8.7 38.9-22.3h.7l1.7 19.6h32.2c-.5-10.2-1-25.5-1-39.4.1-.1.1-160 .1-160zM2260 183.7c0 21.8-13.9 29.8-24.8 29.8-17.4 0-27.8-16.6-27.8-41.7 0-24.1 9.4-43.4 28.3-43.4 12.1 0 24.3 9.9 24.3 30v25.3z"/><g><linearGradient id="Bottom_copy_2_1_" gradientUnits="userSpaceOnUse" x1="491.498" y1="147.6" x2=".377" y2="147.6"><stop offset="0" stop-color="#027fb1"/><stop offset="1" stop-color="#41bee8"/></linearGradient><path id="Bottom_copy_2" d="M491.5 47.8S261-60.9.4 49.5c375.9 32.5 399.5 240.1 402 245.7C476.8 179 491.5 47.8 491.5 47.8z" fill="url(#Bottom_copy_2_1_)"/><linearGradient id="Bottom_copy_1_" gradientUnits="userSpaceOnUse" x1="128.981" y1=".208" x2="128.981" y2="479.62"><stop offset="0" stop-color="#027fb1"/><stop offset="1" stop-color="#41bee8"/></linearGradient><path id="Bottom_copy" d="M0 49.1s26.6 260.2 257.2 430.5C93.3 139.8 254.4 5.5 258 .4 110.4-3.6 0 49.1 0 49.1z" fill="url(#Bottom_copy_1_)"/><linearGradient id="Bottom_1_" gradientUnits="userSpaceOnUse" x1="161.25" y1="393.46" x2="498.926" y2="55.783"><stop offset="0" stop-color="#027fb1"/><stop offset="1" stop-color="#41bee8"/></linearGradient><path id="Bottom" d="M257.4 480s205.4-146.5 234-431.8C283 362.7 89 283.9 82.8 283.4 149.3 404.3 257.4 480 257.4 480z" fill="url(#Bottom_1_)"/></g></svg>