<svg xmlns="http://www.w3.org/2000/svg" xmlns:xlink="http://www.w3.org/1999/xlink" width="122" height="96" viewBox="0 0 122 96">
    <defs>
        <circle id="a" cx="62.667" cy="12" r="4"/>
        <circle id="b" cx="101.333" cy="22.667" r="4"/>
        <circle id="c" cx="62.667" cy="33.333" r="4"/>
        <circle id="d" cx="42.667" cy="73.333" r="4"/>
        <circle id="e" cx="42.667" cy="10.667" r="4"/>
        <circle id="f" cx="4" cy="10.667" r="4"/>
        <circle id="g" cx="4" cy="73.333" r="4"/>
        <circle id="h" cx="78.667" cy="44" r="4"/>
    </defs>
    <g fill="none" fill-rule="evenodd">
        <path stroke="#666" stroke-linecap="round" stroke-linejoin="round" d="M50.333 1H121v45.333H50.333zM88.493 13.667H63.667M101.817 24.333H70.85"/>
        <g transform="rotate(-90 63.667 12)">
            <use fill="#0091BA" xlink:href="#a"/>
            <circle cx="62.667" cy="12" r="3.25" stroke="#333" stroke-width="1.5"/>
            <use stroke="#333" xlink:href="#a"/>
        </g>
        <g transform="rotate(-90 102.333 22.667)">
            <use fill="#0091BA" xlink:href="#b"/>
            <circle cx="101.333" cy="22.667" r="3.25" stroke="#333" stroke-width="1.5"/>
            <use stroke="#333" xlink:href="#b"/>
        </g>
        <path stroke="#666" stroke-linecap="round" stroke-linejoin="round" d="M76.527 35H66.333"/>
        <g transform="rotate(-90 63.667 33.333)">
            <use fill="#0091BA" xlink:href="#c"/>
            <circle cx="62.667" cy="33.333" r="3.25" stroke="#333" stroke-width="1.5"/>
            <use stroke="#333" xlink:href="#c"/>
        </g>
        <path stroke="#666" stroke-linecap="round" stroke-linejoin="round" d="M5 11.667h38.667v62.667H5z"/>
        <g transform="rotate(-90 43.667 73.333)">
            <use fill="#0091BA" xlink:href="#d"/>
            <circle cx="42.667" cy="73.333" r="3.25" stroke="#333" stroke-width="1.5"/>
            <use stroke="#333" xlink:href="#d"/>
        </g>
        <g transform="rotate(-90 43.667 10.667)">
            <use fill="#0091BA" xlink:href="#e"/>
            <circle cx="42.667" cy="10.667" r="3.25" stroke="#333" stroke-width="1.5"/>
            <use stroke="#333" xlink:href="#e"/>
        </g>
        <g transform="rotate(-90 5 10.667)">
            <use fill="#0091BA" xlink:href="#f"/>
            <circle cx="4" cy="10.667" r="3.25" stroke="#333" stroke-width="1.5"/>
            <use stroke="#333" xlink:href="#f"/>
        </g>
        <g transform="rotate(-90 5 73.333)">
            <use fill="#0091BA" xlink:href="#g"/>
            <circle cx="4" cy="73.333" r="3.25" stroke="#333" stroke-width="1.5"/>
            <use stroke="#333" xlink:href="#g"/>
        </g>
        <path stroke="#666" stroke-linecap="round" stroke-linejoin="round" d="M23.767 74.928v10.835c.237 5.867 3.17 8.8 8.8 8.8h37.52c6.15-.312 9.224-3.387 9.224-9.223V45.764"/>
        <g transform="rotate(-90 79.667 44)">
            <use fill="#0091BA" xlink:href="#h"/>
            <circle cx="78.667" cy="44" r="3.25" stroke="#333" stroke-width="1.5"/>
            <use stroke="#333" xlink:href="#h"/>
        </g>
    </g>
</svg>
