<?xml version="1.0" encoding="UTF-8"?>
<svg width="18px" height="24px" viewBox="0 0 18 24" xmlns="http://www.w3.org/2000/svg" xmlns:xlink="http://www.w3.org/1999/xlink" version="1.1">
 <!-- Generated by Pixelmator Pro 2.1.5 -->
 <g id="group">
  <path id="Path" d="M15 23 L3 23 C2.47 23 1.961 22.789 1.586 22.414 1.211 22.039 1 21.53 1 21 L1 3 C1 2.47 1.211 1.961 1.586 1.586 1.961 1.211 2.47 1 3 1 L15 1 C15.53 1 16.039 1.211 16.414 1.586 16.789 1.961 17 2.47 17 3 L17 21 C17 21.53 16.789 22.039 16.414 22.414 16.039 22.789 15.53 23 15 23 Z" fill="none" stroke="#4b741b" stroke-width="1" stroke-opacity="1" stroke-linejoin="round" stroke-linecap="round"/>
  <path id="Path-1" d="M10 19 C10 19.552 9.552 20 9 20 8.448 20 8 19.552 8 19 8 18.448 8.448 18 9 18 9.552 18 10 18.448 10 19 Z" fill="#4b741b" fill-opacity="1" stroke="none"/>
 </g>
</svg>
