<svg xmlns="http://www.w3.org/2000/svg" xmlns:xlink="http://www.w3.org/1999/xlink" width="109" height="121" viewBox="0 0 109 121">
    <defs>
        <circle id="a" cx="60.594" cy="58.218" r="3.564"/>
        <circle id="b" cx="60.594" cy="35.644" r="3.564"/>
        <circle id="c" cx="60.594" cy="115.248" r="3.564"/>
        <circle id="d" cx="79.604" cy="68.911" r="3.564"/>
        <circle id="e" cx="109.307" cy="28.515" r="3.564"/>
        <circle id="f" cx="9.505" cy="28.515" r="3.564"/>
        <circle id="g" cx="41.584" cy="68.911" r="3.564"/>
    </defs>
    <g fill="none" fill-rule="evenodd" transform="translate(-5 1)">
        <circle cx="60.594" cy="58.218" r="4.752" stroke="#666" stroke-linecap="round" stroke-linejoin="round"/>
        <ellipse cx="60" cy="57.624" stroke="#666" stroke-linecap="round" stroke-linejoin="round" rx="19.604" ry="57.624"/>
        <ellipse cx="59.706" cy="57.671" stroke="#666" stroke-linecap="round" stroke-linejoin="round" rx="19.604" ry="57.624" transform="rotate(-120 59.706 57.67)"/>
        <path stroke="#666" stroke-linecap="round" stroke-linejoin="round" d="M109.61 86.482c5.413-9.376-12.541-29.877-40.102-45.789C41.947 24.781 15.215 19.483 9.802 28.86c-5.414 9.376 12.54 29.877 40.102 45.79 27.56 15.911 54.292 21.21 59.705 11.833z"/>
        <g transform="rotate(-90 60.594 58.218)">
            <use fill="#0091BA" xlink:href="#a"/>
            <circle cx="60.594" cy="58.218" r="2.814" stroke="#151515" stroke-width="1.5"/>
            <use stroke="#151515" xlink:href="#a"/>
        </g>
        <g transform="rotate(-90 60.594 35.644)">
            <use fill="#0091BA" xlink:href="#b"/>
            <circle cx="60.594" cy="35.644" r="2.814" stroke="#151515" stroke-width="1.5"/>
            <use stroke="#151515" xlink:href="#b"/>
        </g>
        <g transform="rotate(-90 60.594 115.248)">
            <use fill="#0091BA" xlink:href="#c"/>
            <circle cx="60.594" cy="115.248" r="2.814" stroke="#151515" stroke-width="1.5"/>
            <use stroke="#151515" xlink:href="#c"/>
        </g>
        <g transform="rotate(-90 79.604 68.91)">
            <use fill="#0091BA" xlink:href="#d"/>
            <circle cx="79.604" cy="68.911" r="2.814" stroke="#151515" stroke-width="1.5"/>
            <use stroke="#151515" xlink:href="#d"/>
        </g>
        <g transform="rotate(-90 109.307 28.515)">
            <use fill="#0091BA" xlink:href="#e"/>
            <circle cx="109.307" cy="28.515" r="2.814" stroke="#151515" stroke-width="1.5"/>
            <use stroke="#151515" xlink:href="#e"/>
        </g>
        <g transform="rotate(-90 9.505 28.515)">
            <use fill="#0091BA" xlink:href="#f"/>
            <circle cx="9.505" cy="28.515" r="2.814" stroke="#151515" stroke-width="1.5"/>
            <use stroke="#151515" xlink:href="#f"/>
        </g>
        <g transform="rotate(-90 41.584 68.91)">
            <use fill="#0091BA" xlink:href="#g"/>
            <circle cx="41.584" cy="68.911" r="2.814" stroke="#151515" stroke-width="1.5"/>
            <use stroke="#151515" xlink:href="#g"/>
        </g>
    </g>
</svg>
