<svg xmlns="http://www.w3.org/2000/svg" xmlns:xlink="http://www.w3.org/1999/xlink" width="122" height="106" viewBox="0 0 122 106">
    <defs>
        <circle id="a" cx="84.286" cy="98.571" r="4.286"/>
        <circle id="b" cx="48.571" cy="65.714" r="4.286"/>
        <circle id="c" cx="7.857" cy="22.143" r="4.286"/>
        <circle id="d" cx="82.857" cy="31.429" r="4.286"/>
        <circle id="e" cx="20" cy="94.286" r="4.286"/>
    </defs>
    <g fill="none" fill-rule="evenodd" transform="translate(1 1)">
        <circle cx="48.571" cy="65.714" r="12.857" stroke="#666" stroke-linecap="round" stroke-linejoin="round"/>
        <circle cx="82.857" cy="31.429" r="10" stroke="#666" stroke-linecap="round" stroke-linejoin="round"/>
        <circle cx="7.857" cy="22.143" r="7.857" stroke="#666" stroke-linecap="round" stroke-linejoin="round"/>
        <circle cx="20" cy="94.286" r="7.143" stroke="#666" stroke-linecap="round" stroke-linejoin="round"/>
        <circle cx="84.286" cy="98.571" r="5.714" stroke="#666" stroke-linecap="round" stroke-linejoin="round"/>
        <circle cx="115.714" cy="52.857" r="4.286" stroke="#666" stroke-linecap="round" stroke-linejoin="round"/>
        <circle cx="88.571" cy="2.857" r="2.857" stroke="#666" stroke-linecap="round" stroke-linejoin="round"/>
        <path stroke="#666" stroke-linecap="round" stroke-linejoin="round" d="M57.782 56.461l17.932-17.78M90.985 37.401l21.22 12.91M25.293 89.09l14.02-14M12.561 28.448l27.466 27.247M85.207 21.582L88.01 5.714M79.202 94.835l-20.63-20.55"/>
        <g transform="rotate(-90 84.286 98.571)">
            <use fill="#DDD" xlink:href="#a"/>
            <circle cx="84.286" cy="98.571" r="3.536" stroke="#333" stroke-width="1.5"/>
            <use stroke="#333" xlink:href="#a"/>
        </g>
        <g transform="rotate(-90 48.571 65.714)">
            <use fill="#DDD" xlink:href="#b"/>
            <circle cx="48.571" cy="65.714" r="3.536" stroke="#333" stroke-width="1.5"/>
            <use stroke="#333" xlink:href="#b"/>
        </g>
        <g transform="rotate(-90 7.857 22.143)">
            <use fill="#DDD" xlink:href="#c"/>
            <circle cx="7.857" cy="22.143" r="3.536" stroke="#333" stroke-width="1.5"/>
            <use stroke="#333" xlink:href="#c"/>
        </g>
        <g transform="rotate(-90 82.857 31.429)">
            <use fill="#DDD" xlink:href="#d"/>
            <circle cx="82.857" cy="31.429" r="3.536" stroke="#333" stroke-width="1.5"/>
            <use stroke="#333" xlink:href="#d"/>
        </g>
        <g transform="rotate(-90 20 94.286)">
            <use fill="#DDD" xlink:href="#e"/>
            <circle cx="20" cy="94.286" r="3.536" stroke="#333" stroke-width="1.5"/>
            <use stroke="#333" xlink:href="#e"/>
        </g>
    </g>
</svg>
