<svg xmlns="http://www.w3.org/2000/svg" xmlns:xlink="http://www.w3.org/1999/xlink" width="104" height="122" viewBox="0 0 104 122">
    <defs>
        <circle id="a" cx="50.149" cy="50.149" r="5.373"/>
        <circle id="b" cx="5.373" cy="5.373" r="5.373"/>
        <circle id="c" cx="5.373" cy="96.716" r="5.373"/>
        <circle id="d" cx="37.612" cy="5.373" r="5.373"/>
        <circle id="e" cx="37.612" cy="96.716" r="5.373"/>
        <circle id="f" cx="69.851" cy="5.373" r="5.373"/>
        <circle id="g" cx="69.851" cy="96.716" r="5.373"/>
        <circle id="h" cx="82.388" cy="50.149" r="5.373"/>
        <circle id="i" cx="114.627" cy="50.149" r="5.373"/>
    </defs>
    <g fill="none" fill-rule="evenodd">
        <path stroke="#666" stroke-linecap="round" stroke-linejoin="round" d="M6.328 115.672l44.838-44.838M6.328 83.433l44.838-44.838M95.942 115.672L51.104 70.834M95.942 83.433L51.104 38.595M6.328 51.194L51.166 6.356M95.942 51.194L51.104 6.356"/>
        <g transform="rotate(-90 61 60.045)">
            <use fill="#0091BA" xlink:href="#a"/>
            <circle cx="50.149" cy="50.149" r="4.623" stroke="#151515" stroke-width="1.5"/>
            <use stroke="#151515" xlink:href="#a"/>
        </g>
        <g transform="rotate(-90 61 60.045)">
            <use fill="#0091BA" xlink:href="#b"/>
            <circle cx="5.373" cy="5.373" r="4.623" stroke="#151515" stroke-width="1.5"/>
            <use stroke="#151515" xlink:href="#b"/>
        </g>
        <g transform="rotate(-90 61 60.045)">
            <use fill="#0091BA" xlink:href="#c"/>
            <circle cx="5.373" cy="96.716" r="4.623" stroke="#151515" stroke-width="1.5"/>
            <use stroke="#151515" xlink:href="#c"/>
        </g>
        <g transform="rotate(-90 61 60.045)">
            <use fill="#0091BA" xlink:href="#d"/>
            <circle cx="37.612" cy="5.373" r="4.623" stroke="#151515" stroke-width="1.5"/>
            <use stroke="#151515" xlink:href="#d"/>
        </g>
        <g transform="rotate(-90 61 60.045)">
            <use fill="#0091BA" xlink:href="#e"/>
            <circle cx="37.612" cy="96.716" r="4.623" stroke="#151515" stroke-width="1.5"/>
            <use stroke="#151515" xlink:href="#e"/>
        </g>
        <g transform="rotate(-90 61 60.045)">
            <use fill="#0091BA" xlink:href="#f"/>
            <circle cx="69.851" cy="5.373" r="4.623" stroke="#151515" stroke-width="1.5"/>
            <use stroke="#151515" xlink:href="#f"/>
        </g>
        <g transform="rotate(-90 61 60.045)">
            <use fill="#0091BA" xlink:href="#g"/>
            <circle cx="69.851" cy="96.716" r="4.623" stroke="#151515" stroke-width="1.5"/>
            <use stroke="#151515" xlink:href="#g"/>
        </g>
        <g transform="rotate(-90 61 60.045)">
            <use fill="#0091BA" xlink:href="#h"/>
            <circle cx="82.388" cy="50.149" r="4.623" stroke="#151515" stroke-width="1.5"/>
            <use stroke="#151515" xlink:href="#h"/>
        </g>
        <g transform="rotate(-90 61 60.045)">
            <use fill="#0091BA" xlink:href="#i"/>
            <circle cx="114.627" cy="50.149" r="4.623" stroke="#151515" stroke-width="1.5"/>
            <use stroke="#151515" xlink:href="#i"/>
        </g>
    </g>
</svg>
